<svg xmlns="http://www.w3.org/2000/svg" viewBox="0 0 60 60" version="1.0"><g stroke-linejoin="round" stroke="#fff" stroke-width="8.125" fill="none"><path d="M13.984 13.541c11.776-7.161 22.279-7.32 31.509.159M49.125 11.75l-8.281 5.125c-1.413-.706-4.676-2.937-10.375-2.937-5.961 0-9.313 1.946-10.813 2.812l-8.468-4.906v5.125c-3.595 0-6.5 2.937-6.5 6.531s2.905 6.5 6.5 6.5v2.344h.062c-.006.188-.062.372-.062.562 0 10.474 8.494 18.969 18.968 18.969s19-8.495 19-18.969c0-.113-.029-.199-.031-.312v-2.656c3.441-.173 6.187-2.955 6.187-6.438 0-3.484-2.746-6.297-6.187-6.469V11.75z"/></g><g stroke-linejoin="round" stroke="#000"><path d="M13.983 13.54c11.776-7.16 22.28-7.32 31.51.16" stroke-width="3.1252929" fill="none"/><path d="M17.71 23.487a6.514 6.514 0 01-6.511 6.511 6.514 6.514 0 01-6.512-6.51 6.514 6.514 0 016.512-6.513 6.514 6.514 0 016.511 6.512zM55.313 23.487a6.514 6.514 0 01-6.512 6.511 6.514 6.514 0 01-6.511-6.51 6.514 6.514 0 016.511-6.513 6.514 6.514 0 016.512 6.512z" fill-rule="evenodd" stroke-width="3.12513072"/><path d="M49.114 11.742l-8.27 5.12c-1.412-.706-4.67-2.937-10.37-2.937-5.96 0-9.32 1.953-10.82 2.819l-8.456-4.892v20.506h.055c-.006.19-.055.363-.055.554 0 10.473 8.484 18.957 18.958 18.957 10.474 0 18.986-8.484 18.986-18.957 0-.115-.025-.22-.028-.333V11.742z" fill-rule="evenodd" stroke-linecap="round" stroke-width="3.1252929" fill="#fff"/><path d="M25.742 39.025h8.856s-2.453 2.554-4.428 2.384c-1.96.268-4.428-2.384-4.428-2.384zM23.219 44.024H37.12s-3.85 4.011-6.95 3.744c-3.08.42-6.952-3.744-6.952-3.744z" fill-rule="evenodd" stroke-linecap="round" stroke-width="1.8748580200000002"/><g stroke-linecap="round" fill-rule="evenodd"><path d="M32.472 36.261l1.845-4.755h9.312l-3.903 4.667-7.254.088z" transform="matrix(1.10002 0 0 .94642 -3.303 1.313)" stroke-width="1.838"/><path d="M27.922 35.632l-2.03-4.5H15.65l4.293 4.416 7.98.084z" stroke-width="1.8748580200000002"/></g></g></svg>